<svg id="Ebene_1" data-name="Ebene 1" xmlns="http://www.w3.org/2000/svg" xmlns:xlink="http://www.w3.org/1999/xlink" viewBox="0 0 129 107">
  <defs>
    <style>
      .cls-1 {
        fill: none;
      }

      .cls-2 {
        fill: #fff;
      }

      .cls-3 {
        clip-path: url(#clip-path);
      }

      .cls-4 {
        fill: #1d1d1b;
      }
    </style>
    <clipPath id="clip-path" transform="translate(-177 -197)">
      <rect class="cls-1" x="208" y="226.45" width="67.97" height="47.55"/>
    </clipPath>
  </defs>
  <title>11</title>
  <rect class="cls-2" width="129" height="107"/>
  <g class="cls-3">
    <path class="cls-4" d="M254.65,270.12l.14,3.88c11.77,0,21.18-6.64,21.18-14.81V233H261.71v26.17c0,6.09-3.11,10.93-7.06,10.93m11.91-30.45c5.19,0,9.41-3,9.41-6.65s-4.22-6.57-9.41-6.57-9.41,3-9.41,6.57,4.22,6.65,9.41,6.65m-49.15,21.11c-5.19,0-9.41,3-9.41,6.64s4.22,6.58,9.41,6.58,9.42-3,9.42-6.58-4.22-6.64-9.42-6.64M242,256.83c5.19,0,9.41-3,9.41-6.64s-4.22-6.58-9.41-6.58-9.42,3-9.42,6.58,4.23,6.64,9.42,6.64m-12.67-26.51-.14-3.87c-11.77,0-21.18,6.64-21.18,14.81v26.16h14.26V241.26c0-6.09,3.11-10.94,7.06-10.94" transform="translate(-177 -197)"/>
  </g>
</svg>
