<svg id="Ebene_1" data-name="Ebene 1" xmlns="http://www.w3.org/2000/svg" xmlns:xlink="http://www.w3.org/1999/xlink" viewBox="0 0 129 107">
  <defs>
    <style>
      .cls-1 {
        fill: none;
      }

      .cls-2 {
        fill: #fff;
      }

      .cls-3 {
        clip-path: url(#clip-path);
      }

      .cls-4 {
        fill: #1d1d1b;
      }
    </style>
    <clipPath id="clip-path" transform="translate(-177 -197)">
      <rect class="cls-1" x="202" y="222.49" width="79.3" height="55.51"/>
    </clipPath>
  </defs>
  <title>12</title>
  <rect class="cls-2" width="129" height="107"/>
  <g class="cls-3">
    <path class="cls-4" d="M241.69,250.32c10.89,0,19.77-6.25,19.77-13.88s-8.88-13.95-19.77-13.95-19.92,6.25-19.92,13.95,8.88,13.88,19.92,13.88M221.91,278c10.9,0,19.78-6.24,19.78-13.88s-8.88-13.94-19.78-13.94S202,256.42,202,264.12,210.88,278,221.91,278m0-4c-3.19,0-5.69-4.44-5.69-9.92s2.5-9.92,5.69-9.92,5.69,4.44,5.69,9.92-2.5,9.92-5.69,9.92m19.78-9.92v-17.2l-12.84.14c1.46.83.76,4.09-2.29,3.53Zm0,0,15.12-13.53c-3.05.56-3.88-2.7-2.43-3.53l-12.69-.14ZM261.53,278c10.89,0,19.77-6.24,19.77-13.88s-8.88-13.94-19.77-13.94-19.84,6.24-19.84,13.94S250.57,278,261.53,278m0-4c-3.19,0-5.62-4.44-5.62-9.92s2.43-9.92,5.62-9.92,5.69,4.44,5.69,9.92-2.5,9.92-5.69,9.92m-19.84-27.68c-3.2,0-5.69-4.44-5.69-9.92s2.49-9.92,5.69-9.92,5.69,4.44,5.69,9.92-2.5,9.92-5.69,9.92m-2,23.8c1.32-1.94,2.71-1.94,4,0l-2-6Z" transform="translate(-177 -197)"/>
  </g>
</svg>
