<svg id="Ebene_1" data-name="Ebene 1" xmlns="http://www.w3.org/2000/svg" xmlns:xlink="http://www.w3.org/1999/xlink" viewBox="0 0 129 107">
  <defs>
    <style>
      .cls-1 {
        fill: none;
      }

      .cls-2 {
        fill: #fff;
      }

      .cls-3 {
        clip-path: url(#clip-path);
      }

      .cls-4 {
        fill: #1d1d1b;
      }
    </style>
    <clipPath id="clip-path" transform="translate(-177 -197)">
      <rect class="cls-1" x="202" y="222.54" width="79.23" height="55.46"/>
    </clipPath>
  </defs>
  <title>14</title>
  <rect class="cls-2" width="129" height="107"/>
  <g class="cls-3">
    <path class="cls-4" d="M241.65,250.34l6.93-.14c-5.27,0-12.61-5.34-12.61-11.85,0-8.11,2.29-11.79,5.68-11.79h30.23v-4l-30.23.07c-11,0-19.89,6.17-19.89,13.87s8.87,13.86,19.89,13.86m-39.65,21h14.21v-7.2H202Zm9.43,6.66c5.2,0,9.42-3,9.42-6.66s-4.22-6.58-9.42-6.58-9.43,3-9.43,6.58,4.23,6.66,9.43,6.66m30.22-23.78v-4l-12.82-3.12c1.45.83,1,3.12-2.29,3.12H221.9v4ZM261.48,278c10.88,0,19.75-6.24,19.75-13.86s-8.87-13.94-19.75-13.94-19.83,6.24-19.83,13.94S250.53,278,261.48,278m0-3.95c-3.19,0-5.62-4.44-5.62-9.91s2.43-9.92,5.62-9.92,5.68,4.44,5.68,9.92-2.49,9.91-5.68,9.91m-19.83-19.83h6.86l13-4H241.65Zm30.16-18.44c5.19,0,9.42-3,9.42-6.65s-4.23-6.59-9.42-6.59-9.43,3-9.43,6.59,4.23,6.65,9.43,6.65M202,264.14h14.21c0-5.48,2.5-9.92,5.69-9.92v-4c-11,0-19.9,6.24-19.9,13.94" transform="translate(-177 -197)"/>
  </g>
</svg>
