<svg id="Ebene_1" data-name="Ebene 1" xmlns="http://www.w3.org/2000/svg" xmlns:xlink="http://www.w3.org/1999/xlink" viewBox="0 0 129 107">
  <defs>
    <style>
      .cls-1 {
        fill: none;
      }

      .cls-2 {
        fill: #fff;
      }

      .cls-3 {
        clip-path: url(#clip-path);
      }

      .cls-4 {
        fill: #1d1d1b;
      }
    </style>
    <clipPath id="clip-path" transform="translate(-177 -197)">
      <rect class="cls-1" x="202" y="222.06" width="79.93" height="55.94"/>
    </clipPath>
  </defs>
  <title>15</title>
  <rect class="cls-2" width="129" height="107"/>
  <g class="cls-3">
    <path class="cls-4" d="M242,250.1l7-.14c-5.31,0-12.72-5.39-12.72-12,0-8.18,2.3-11.89,5.73-11.89h30.49v-4.05l-30.49.07c-11.12,0-20.07,6.22-20.07,14s8.95,14,20.07,14m-40,21.19h14.34V264H202Zm9.51,6.71c5.25,0,9.51-3,9.51-6.71s-4.26-6.65-9.51-6.65-9.51,3-9.51,6.65,4.27,6.71,9.51,6.71M242,254v-4l-12.94-3.15c1.47.84,1,3.15-2.31,3.15h-4.68v4Zm20-4v4c3.22,0,5.73,4.48,5.73,10s-2.51,10-5.73,10H242.07l-.07,4h20c11,0,19.93-6.29,19.93-14S273,250,262,250m-20,4h20v-4H242Zm30.42-18.6c5.24,0,9.51-3,9.51-6.71s-4.27-6.64-9.51-6.64-9.51,3-9.51,6.64,4.26,6.71,9.51,6.71M202,264h14.34c0-5.52,2.51-10,5.73-10v-4C211,250,202,256.25,202,264m40,14c5.24,0,9.51-3,9.51-6.71s-4.27-6.65-9.51-6.65-9.51,3-9.51,6.65S236.75,278,242,278" transform="translate(-177 -197)"/>
  </g>
</svg>
